<?xml version="1.0" encoding="UTF-8"?>
<!DOCTYPE svg PUBLIC '-//W3C//DTD SVG 1.1//EN' 'http://www.w3.org/Graphics/SVG/1.1/DTD/svg11.dtd'>
<svg width="420" height="325" font-family="DejaVu Sans" font-size="13" xmlns="http://www.w3.org/2000/svg" xmlns:xlink="http://www.w3.org/1999/xlink">
 <radialGradient id="i" cx="219" cy="184" r="38" gradientTransform="matrix(1.2926 0 0 1.1222 -65.2 -19.4)" gradientUnits="userSpaceOnUse">
  <stop stop-color="#f58f99" offset="0"/>
  <stop stop-color="#f28e97" offset=".642"/>
  <stop stop-color="#b17072" offset="1"/>
 </radialGradient>
 <linearGradient id="k" x1="217" x2="217" y1="249" y2="58" gradientUnits="userSpaceOnUse">
  <stop stop-color="#e3727c" offset="0"/>
  <stop stop-color="#f3b7bb" offset=".383"/>
  <stop stop-color="#e56f7b" offset="1"/>
 </linearGradient>
 <linearGradient id="m" x1="213" x2="213" y1="135" y2="179" gradientUnits="userSpaceOnUse">
  <stop stop-color="#5b2d33" offset="0"/>
  <stop stop-color="#a33d45" offset="1"/>
 </linearGradient>
 <filter id="h" color-interpolation-filters="sRGB">
  <feGaussianBlur stdDeviation="2.695"/>
 </filter>
 <radialGradient id="j" cx="208.68" cy="153.85" r="54.45" gradientTransform="matrix(1.2265 .00227 -.00333 1.7993 -45.4 -123.7)" gradientUnits="userSpaceOnUse">
  <stop stop-opacity="0" offset="0"/>
  <stop stop-opacity="0" offset=".874"/>
  <stop stop-opacity=".25" offset="1"/>
 </radialGradient>
 <clipPath id="l">
  <use xlink:href="#n"/>
 </clipPath>
 <path id="n" d="m156.8 134.7c-4 15.6-3.7 31.9.6 48 5.7 21.4 10 43.6 20.3 64.6 8.8 17.6 23.5 19 37.8 19.5 16 .6 29.2-5.4 34.9-24.1l17.4-57.6c4.3-14.1 3-28.6 1.1-43.2-2.3-16.8-12.9-45.9-14-57.7-1-12.5-10.2-35.5-28-39.4-5-1.1-11.8 1.4-16.8 1.5-4.6.1-8.8-2-13.3-1.7-17.1 1.5-21.1 17.7-24.8 31.9z" fill="#d15666" stroke="#000" stroke-linecap="round" stroke-linejoin="round"/>
 <path d="m177.3 135h69.8v54.6h-69.8z" fill="url(#m)" stroke="#000" stroke-linecap="round" stroke-linejoin="round"/>
 <path d="m194.2 187c-1.5-16.5-3.3-32.7-23-30.8v30.9zm50.4-30.8c-17.6-1.7-11.1 13.1-10.7 23.8h10.7z" fill="#bd5460" fill-opacity=".5" stroke="#000" stroke-linecap="round" stroke-linejoin="round"/>
 <g clip-path="url(#l)" fill="none" stroke-linecap="round" stroke-linejoin="round" stroke-opacity=".5" stroke-width="16">
  <path d="m208 243.5c-16.4-1.1-21.4-9.2-25.2-23m63.8 46.6c5.3-20 19-48.9 28.5-74m-15.6-117.4c-7-16.9-16.9-31.7-38-38.6m-41.3 1.6 23 1.6" filter="url(#h)" stroke="#fff"/>
  <path d="m177.5 48.9-24.1 67m4.8 103.5c17.4 42.9 37.5 56.2 64.9 55.2m-4.3-209.7c7.3 2 14.9.7 20.9 20.4" filter="url(#h)" stroke="#000"/>
 </g>
 <path d="m161.7 138.2 13.6-47.2c6-20.8 20-30 38.4-32.5 23.2-3 32 23.2 35 33.8 4.1 5.4 15.4 51 15.4 51 4.6 15.5 4.2 33-1.9 46.3l-16 35.4c-7.1 15.5-17.9 23.6-33.9 23.9-14 .2-27.1-5.2-32.7-19.8-8.3-6.5-17.1-45.4-17.1-45.4a70.8 70.8 0 0 1 -.8-45.5zm80.1 42.3s5-37.5-13.8-37.5c-14.9 0-9.6 15.7-15.3 15.7-4.7 0-1.9-15.6-14.2-15.6-15.8 0-22.5 32.7-19 45.2z" fill="url(#k)" stroke="#000" stroke-linecap="round" stroke-linejoin="round"/>
 <path d="m161.7 138.2 13.6-47.2c6-20.8 20-30 38.4-32.5 23.2-3 32 23.2 35 33.8 4.1 5.4 15.4 51 15.4 51 4.6 15.5 4.2 33-1.9 46.3l-16 35.4c-7.1 15.5-17.9 23.6-33.9 23.9-14 .2-27.1-5.2-32.7-19.8-8.3-6.5-17.1-45.4-17.1-45.4a70.8 70.8 0 0 1 -.8-45.5zm80.1 42.3s5-37.5-13.8-37.5c-14.9 0-9.6 15.7-15.3 15.7-4.7 0-1.9-15.6-14.2-15.6-15.8 0-22.5 32.7-19 45.2z" fill="url(#j)"/>
 <g stroke="#000">
  <path d="m174.1 189.5c8.3-11 12.8-26.8 37.7-15.3 10.4-6.2 27.6-9 35.7 10 7.6 34-12.8 43.8-34.5 45-21.6 1-41-8.7-38.9-39.7z" fill="url(#i)" stroke-linecap="round" stroke-linejoin="round"/>
  <path d="m258.2 192.6c1.6-6 0-14.7-4-10.2-1.1 1.2-2.3 1-3.5.5-6-2.6-4 4.4-3.6 6.7-4.6 1.5-2.4 7.3-1.7 9.7-3.2 2.6-4.8 5.6-4.1 9-2.8.8-4.5 2.6-4.4 6-3 .5-3.2 2.8-4.5 4.6 0 0-1.2-1.6-2-1.4-1 .2-3.7 5-3.7 5-3-.7-5.8-.6-8 1.2-2.5-3.6-7.3-2.4-9-.2-2.3-1.7-4.5-1.8-6.8-.4-3.3-1.7-6.3-1.9-8.5.7-2.4-2.5-2.5-6.3-4.9-6.6l-3.5-2.2c.3-2-1-3.8-3.2-5.2 0-3.3 0-6.8-3-8 .2-3.2.3-6.4-3.3-8.6 0-3.9 2.1-9.2-4.7-8.4-3.3.3-8.8-.7-8.2 2.8 0 0 7 30.7 10.8 30.1.6 2 .6 3.6 4.8 4.7.8 4.3 3 6.3 6.3 6.7 2.7 4 5.4 4.3 8 1.9 3.6 6.2 6 3.2 8.6.7 2.6 1.9 5.1 4.6 8 1 2.9 3.6 5.5 2.6 8 0 2.8 2.7 6-.9 7.7-3 2.4 4 7.5-.7 8.9-2.3 6.6 1.4 7.3-2.8 8.3-5.8 4.6.7 5.7-3.8 7.6-7 4-9.4 10-17.4 7.7-22zm-87.7-51.8c4.8 4.3 7.5-1.2 6.8-5.7 2.5-1.8 2.2-6.5 1.7-8.6 3.5-3.5 3.1-7.2 1.7-11 .8-2.4 2.5-4.5 1.3-7.5 3-1.6 3.3-5.3 2.7-9.7 0-2.6-.3-5.3 3.8-5.9 6.5 3 6.5-1.9 8.4-4.5 4.2 3.5 10.2 1.4 12.5 0 3.8 2.4 9.8 2.5 12 .5 3.3 2 6.5 4.2 9.7 2.3 3.4 2 1.2 11.8 6.4 6.4 0 3.5.8 6.5 3 8.6-.4 3.7.2 7.1 3 10-1.7 3.3-2.4 6.5 1.5 10.1-.2 2.8-1 5.5 1.1 9-1.2 9.6 2.6 7.3 6.2 5.3 7 2.3 7.3-.5 6.8-6.1.4-3.6.7-7.2-2.4-10 2-4 0-7.6-2.3-11.2 1.5-4.5-1.3-9.6-2.8-11.8-1-6.4-3.2-11.4-9.5-11.1 0-7.2-.6-13.5-9-10.5-1.9-7-5.3-8.7-10.7-3.2-4.2-6.8-8.6-6.2-13.2-.8-5.2-4.6-9.6-3.7-13 2-6.1-3.4-9-.6-10.4 5.2-7.1-.7-8.3 4.8-8.3 11.4-5.5 2.4-5.2 7.1-4.7 12-3.3 1.8-3 5.2-3.2 8.4a11 11 0 0 0 -2.7 9.7c-2.2 3.4-3.6 6.8-1.2 10.3-2.7 4.1-2.2 12.2 4.8 6.4z" fill="#fdfdfd" stroke-linecap="round" stroke-linejoin="round"/>
  <path d="m258.2 192.6c-3.6-7.7-7.6-2.1-11.1-3m-1.5 9.8c1.3-.8 2.6-.3 3.9 1.4 3-3 6 .8 5.7 3.2m-14 4.2 2.6.7c3.7-1.5 6.6 1.7 5.7 7m-12.6-1.6a9.1 9.1 0 0 1 6 7.2m-10.6-2.4c1.4 2.3 1.7 5.4 2.3 8.2m-7.7-4.7c-1 2.3-1.1 5-1.2 7m-7-6-.7 9m-8.3-9 .4 9m-7.2-9.5-.9 8.5m-7.6-7.8-1 7.1m-3.9-13.7c-3.9 2.4-3 7.7-4.1 11.8m-6.1-6.7c-.3-3.6.5-6.6 3-5 1.9 1.4.8-3 3.4-2.2m-3-5.4c-1.8-.4-2.2 2.2-4.6.6-2.3-2-4 4.1-3.5 7.3m4.8-15.8c-1.9-.5-3.2.6-4.4 2.2-4.7-1.3-6 .2-6 3m7.2-13.8c-1.2-.4-2.8-1-5 1.4-4.1-1-4.7.9-5.2 2.8m80.3-62.7c.7.9 3.9 1.8 5.8-1.9 2.7 2.6 5.5 3.6 6.8 1m-13.7-8.1c2.9 1.2 4.5-.2 6.3-1.8 2 1.3 4.5 1.2 5 0m-13-8.1c2.6.5 4.4-1 4.6-3.5 2.3 2.4 5.5 2.2 6.2.3m-13.8-7.1c2.1 1.3 3.8-2.2 5.7-2.7 2-.4 5.1-.1 5.1-2m-14-3.7c1.1-1.5 4.3-4 4.6-7.3m-8.9-10.4c.2 4.1-.4 7.9-2 11.3m-8.7-14.5-1 12.2m-12.2-13c-.2 4.2-1 8.3.2 12.5m-13.3-10.5 1 10.6m-11-5.3c0 3.4-.1 6.5 2.5 9.6m-10.5-3.5c.1 14.3 4.9 12.4 6.6 6.8m-11.5 9.7c.3 2.5 4.5 2.3 6.2-.8.1 1.8.9 3.5 2.7 3.2m-12.1 6.7c.2 2.5 5 3.4 6.6.7 1.4 3 3.4 1.4 4 .3m-13.2 8.7c.6 2.5 4.5 2.2 6.7.9 1 1.8 4 2.3 4.8 1.4m-12.8 7.9c2.1 2.1 4 1 6.2-.5 2 2.5 4 1.8 4.9 1.2" fill="none" stroke-linecap="round" stroke-linejoin="round" stroke-width=".5"/>
  <path d="m219.4 255.7a10.4 10.4 0 0 1-2.5-7m-24.2-4.1c-2 2.3-1.4 5.3-1 7.9" fill="none" stroke-linecap="round" stroke-linejoin="round"/>
  <path d="m248 131.4 3-1.4m-1.3-2a4.4 4.4 0 0 0 4.6 2.7m-5.6 7.8c2 .5 3.2-.3 4.2-1.4m-3.6-15.2c2 .3 2.6-.4 3.2-1.3m-5.1-1c.8-1 2.6-2.4 4.4-2.2m-76.7-4.9 3-1m-6.4 9 3.1 1m-5.2 9c1.4.2 2.8.3 4.3-1 0 1.2.6 1.8 1 2.6m-6.7 5.3c1 .8 2.4 1 4.3-.3m-4.7 50.2c1.2.2 2.1.9 2.8 1.8.4-.6.8-1.3 2.1-1.6m-1.1 9.1c1.6.4 2 1.4 2.3 2.5.5-1 .4-2 1.7-2.7m-.2 7.6 1.7 1.8m60.9 11.6 1-1.6m7.4-12.9 2.8-2m-1.5-6.6 2.6-1 2.6 1.2m-1.4-9 1.1.8 1.2-1m-10.2 23.7c-1.5.4-2.1 1-2.8 1.9m-61.3 0 .7 1m3.1 5.7 1 1" fill="none" stroke-linecap="round" stroke-linejoin="round" stroke-opacity=".5"/>
  <path d="m211.8 174.2c-2 3.7-1.8 8.4-1.7 13" fill="none" stroke-linecap="round" stroke-linejoin="round" stroke-width=".5"/>
  <path d="m215.1 175.5 1.2-.4m4.4-2 1-.2m5.2-.7 1-.1m-4.7-.6 1.1-.4m-7.3 2.2 1-.5m12.8-.7h1m-6.7 1.5h1.4m-4.4 1.3 1.3-.4m-4.2.5 1-.5m-3 2 1.2-.3m-6-.4 1.3-.8m-1.3 3.5 1-.3m20.6-6.2 1 .5m-6.2 2h1m2-.9 1.4.5m-24 3.4-1-.4m-2.8-.1-1.5-.4m-4.4-.7-1.6-.3m-3.7-.1h-1.4m-3.2.1-1.3.6m18.7-.5-1-.5m-3.4-.2-1.3-.2m-4.6-.6h-1m-3-.4h-1.3m-2.8.2 1-.6m3.2-1.8 1-.1m5 1.4 1.5.4m2.6.1 1.2.3m-7.4-2.3h1.8m29.2-.8h1.3m-22.8 2.5 1.2.6m2.3 1.8.9.4m-23.6-.9-1 .7m50.6-2.2 1.1.4" fill="#e56f7b" stroke-linecap="round" stroke-linejoin="round" stroke-opacity=".5" stroke-width=".5"/>
  <path d="m292 268.5-73-73m-9.5 90v-15h-12v-33m12 33h13v-34m-89.5 28h56.5v-29m-41-13v7h34.5m-50-7h15.5v-5h23.5m-39-150h72m-72 33h80m-80 49h77m-77 23h81m64.5 26v12h-22.5m36-12h-13.5v-14h-16.5m30-23h-49m49-28h-58m58-79h-65" fill="none"/>
  <path d="m221.8 198.3h2.9l-6.4-3.5 3.5 6.4zm-24.3 43.2 2 2-2-7-2 7zm25-1 2 2-2-7-2 7zm-33-1 2 2-2-7-2 7zm-10.5-10-2 2 7-2-7-2zm-11-12-2 2 7-2-7-2zm33-150-2 2 7-2-7-2zm8 33-2 2 7-2-7-2zm-3 49-2 2 7-2-7-2zm4 23-2 2 7-2-7-2zm50 38 2-2-7 2 7 2zm6-26 2-2-7 2 7 2zm-19-23 2-2-7 2 7 2zm-9-28 2-2-7 2 7 2zm-7-79 2-2-7 2 7 2z"/>
 </g>
 <switch font-family='DejaVu Sans'>
  <g systemLanguage="cs">
   <text x="210" y="30.5" font-size="21" font-weight="700" text-anchor="middle">Dutina ústní</text>
   <g text-anchor="end">
    <text x="126" y="70.5">Dáseň</text>
    <text x="126" y="104.5">Tvrdé patro</text>
    <text x="126" y="153.5">Čípek patrový</text>
    <text x="126" y="176.5">Chuťové pohárky</text>
    <text x="126" y="226.5">Třenové zuby</text>
    <text x="126" y="268.5">Špičák</text>
   </g>
   <text x="210" y="300.5" text-anchor="middle">Řezáky</text>
   <text x="298" y="274.5">Jazyk</text>
   <text x="298" y="202.5">Stoličky</text>
   <text x="298" y="165.5">Krční mandle</text>
   <text x="298" y="137.5">Měkké patro</text>
   <text x="298" y="58.5">Rty</text>
  </g>
  <g systemLanguage="en">
   <text x="210" y="30.5" font-size="21" font-weight="700" text-anchor="middle">Mouth (Oral Cavity)</text>
   <g text-anchor="end">
    <text x="126" y="70.5">Gingiva (gums)</text>
    <text x="126" y="104.5">Hard palate</text>
    <text x="126" y="153.5">Uvula</text>
    <text x="126" y="176.5">Papillae of tongue</text>
    <text x="126" y="226.5">Premolar</text>
    <text x="126" y="268.5">Canine</text>
   </g>
   <text x="210" y="300.5" text-anchor="middle">Incisor</text>
   <text x="298" y="274.5">Tongue</text>
   <text x="298" y="202.5">Molars</text>
   <text x="298" y="165.5">Palatine tonsil</text>
   <text x="298" y="137.5">Soft palate</text>
   <text x="298" y="58.5">Lips</text>
  </g>
  <g systemLanguage="es">
   <text x="210" y="30.5" font-size="21" font-weight="700" text-anchor="middle">Boca (Cavidad Oral)</text>
   <g text-anchor="end">
    <text x="126" y="70.5">Tejido Gingival</text>
    <text><tspan x="126" y="104.5">Paladar</tspan><tspan x="126" y="118">Duro</tspan></text>
    <text x="126" y="153.5">Uvula</text>
    <text><tspan x="126" y="176.5">Papilas de la</tspan><tspan x="126" y="190">Lengua</tspan></text>
    <text x="126" y="226.5">Premolares</text>
    <text x="126" y="268.5">Caninos</text>
   </g>
   <text x="210" y="300.5" text-anchor="middle">Incisivos</text>
   <text x="298" y="274.5">Lengua</text>
   <text x="298" y="202.5">Molares</text>
   <text><tspan x="298" y="165.5">Amígdala</tspan><tspan x="298" y="179">Palatina</tspan></text>
   <text x="298" y="137.5">Paladar Blando</text>
   <text x="298" y="58.5">Labios</text>
  </g>
  <g systemLanguage="eu">
   <text x="210" y="30.5" font-size="21" font-weight="700" text-anchor="middle">Giza ahoa</text>
   <g text-anchor="end">
    <text x="126" y="70.5">Hortzoiak</text>
    <text><tspan x="126" y="104.5">Ahosabai</tspan><tspan x="126" y="118">gogorra</tspan></text>
    <text x="126" y="153.5">Gingila</text>
    <text><tspan x="126" y="176.5">Dastamen</tspan><tspan x="126" y="190">papilak</tspan></text>
    <text x="126" y="226.5">Aurreko haginak</text>
    <text x="126" y="268.5">Letaginak</text>
   </g>
   <text x="210" y="300.5" text-anchor="middle">Ebakortzak</text>
   <text x="298" y="274.5">Mihia</text>
   <text x="298" y="202.5">Haginak</text>
   <text x="298" y="165.5">Amigdala</text>
   <text x="298" y="137.5">Ahosabai biguna</text>
   <text x="298" y="58.5">Ezpainak</text>
  </g>
  <g systemLanguage="fr">
   <text x="210" y="30.5" font-size="21" font-weight="700" text-anchor="middle">Cavité buccale</text>
   <g text-anchor="end">
    <text x="126" y="70.5">Gencive</text>
    <text x="126" y="104.5">Palais osseux</text>
    <text x="126" y="153.5">Luette</text>
    <text x="126" y="176.5">Papilles linguales</text>
    <text x="126" y="226.5">Prémolaires</text>
    <text x="126" y="268.5">Canine</text>
   </g>
   <text x="210" y="300.5" text-anchor="middle">Incisives</text>
   <text x="298" y="274.5">Langue</text>
   <text x="298" y="202.5">Molaires</text>
   <text><tspan x="298" y="163.5">Amygdale</tspan><tspan x="298" y="177">palatine</tspan></text>
   <text x="298" y="137.5">Palais mou</text>
   <text x="298" y="58.5">Lèvre supérieure</text>
  </g>
  <g systemLanguage="ku">
   <text x="210" y="30.5" font-size="21" font-weight="700" text-anchor="middle">Devê mirov</text>
   <g text-anchor="end">
    <text x="126" y="70.5">Pidî (Pûk)</text>
    <text><tspan x="126" y="104.5">Esmanê dev</tspan><tspan x="126" y="118">(Melaşû)</tspan></text>
    <text x="126" y="153.5">Zimanok</text>
    <text x="126" y="176.5"><!--missing--></text>
    <text x="126" y="226.5">Pêşdiranên kursî</text>
    <text x="126" y="268.5">Qîl (Diranê tûj)</text>
   </g>
   <text x="210" y="300.5" text-anchor="middle">Diranên pêşî</text>
   <text x="298" y="274.5">Ziman</text>
   <text x="298" y="202.5">Diranên kursî</text>
   <text x="298" y="165.5">Aloq (Alû)</text>
   <text><tspan x="298" y="125.5">Nermika</tspan><tspan x="298" y="139">esmanê dev</tspan></text>
   <text x="298" y="58.5">Lêva jêrîn</text>
  </g>
  <g systemLanguage="la">
   <text x="210" y="30.5" font-size="21" font-weight="700" text-anchor="middle">Cavum oris</text>
   <g text-anchor="end">
    <text x="126" y="70.5">Gingiva</text>
    <text x="126" y="104.5">Palatum durum</text>
    <text x="126" y="153.5">Uvula palatina</text>
    <text x="126" y="176.5">Isthmus faucium</text>
    <text><tspan x="126" y="218.5">Dentates</tspan><tspan x="126" y="233">premolares</tspan></text>
    <text x="126" y="268.5">Dens caninus</text>
   </g>
   <text x="210" y="300.5" text-anchor="middle">Dentes incisivi</text>
   <text x="298" y="274.5">Lingua</text>
   <text><tspan x="298" y="197.5">Dentates</tspan><tspan x="298" y="210">molares</tspan></text>
   <text x="298" y="165.5">Tonsilla palatina</text>
   <text x="298" y="137.5">Palatum molle</text>
   <text x="298" y="58.5">Labium superius</text>
  </g>
  <g systemLanguage="pl">
   <text x="210" y="30.5" font-size="21" font-weight="700" text-anchor="middle">Usta (Jama ustna)</text>
   <g text-anchor="end">
    <text x="126" y="70.5">Dziąsła</text>
    <text><tspan x="126" y="104.5">Podniebienie</tspan><tspan x="126" y="118">twarde</tspan></text>
    <text x="126" y="153.5">Języczek</text>
    <text><tspan x="126" y="176.5">Brodawki</tspan><tspan x="126" y="190">językowe</tspan></text>
    <text><tspan x="126" y="218.5">Zęby</tspan><tspan x="126" y="233">przedtrzonowe</tspan></text>
    <text x="126" y="268.5">Kieł</text>
   </g>
   <text x="210" y="300.5" text-anchor="middle">Siekacze</text>
   <text x="298" y="274.5">Język</text>
   <text><tspan x="298" y="202.5">Zęby</tspan><tspan x="298" y="215">trzonowe</tspan></text>
   <text><tspan x="298" y="163.5">Migdałki</tspan><tspan x="298" y="177">podniebienne</tspan></text>
   <text><tspan x="298" y="125.5">Podniebienie</tspan><tspan x="298" y="139">miękkie</tspan></text>
   <text x="298" y="58.5">Warga</text>
  </g>
  <g systemLanguage="ru">
   <text x="210" y="30.5" font-size="21" font-weight="700" text-anchor="middle">Ротовая полость</text>
   <g text-anchor="end">
    <text x="126" y="70.5">Десна</text>
    <text x="126" y="104.5">Твёрдое нёбо</text>
    <text x="126" y="153.5">Язычок</text>
    <text x="126" y="176.5">Перешеек зева</text>
    <text><tspan x="126" y="218.5">Малые</tspan> <tspan x="126" y="233">коренные зубы</tspan></text>
    <text x="126" y="268.5">Клык</text>
   </g>
   <text x="210" y="300.5" text-anchor="middle">Резцы</text>
   <text x="298" y="274.5">Язык</text>
   <text><tspan x="298" y="196.5">Большие</tspan> <tspan x="298" y="209">коренные зубы</tspan></text>
   <text x="298" y="165.5">Нёбная миндалина</text>
   <text x="298" y="137.5">Мягкое нёбо</text>
   <text x="298" y="58.5">Верхняя губа</text>
  </g>
  <g systemLanguage="zxx">
   <g text-anchor="end">
    <text x="126" y="70.5">2</text>
    <text x="126" y="104.5">3</text>
    <text x="126" y="153.5">5</text>
    <text x="126" y="176.5">7</text>
    <text x="126" y="226.5">9</text>
    <text x="126" y="268.5">10</text>
   </g>
   <text x="210" y="300.5" text-anchor="middle">11</text>
   <text x="298" y="274.5">12</text>
   <text x="298" y="202.5">8</text>
   <text x="298" y="165.5">6</text>
   <text x="298" y="137.5">4</text>
   <text x="298" y="58.5">1</text>
  </g>
 </switch>
</svg>
