<?xml version="1.0" encoding="UTF-8" standalone="no"?>
<!DOCTYPE svg PUBLIC "-//W3C//DTD SVG 1.1//EN" "http://www.w3.org/Graphics/SVG/1.1/DTD/svg11.dtd">
<svg xmlns="http://www.w3.org/2000/svg" xmlns:xlink="http://www.w3.org/1999/xlink" xmlns:serif="http://www.serif.com/" width="100%" height="100%" viewBox="0 0 482 447" version="1.1" xml:space="preserve" style="fill-rule:evenodd;clip-rule:evenodd;">
    <path id="path1359" d="M409.172,-14.08L407.543,59.214C407.427,78.348 411.496,97.622 421.387,113.778C442.647,139.173 446.334,176.367 450.705,212.317C452.877,232.441 455.048,252.764 457.22,275.025C472.232,329.835 485.857,385.733 471.065,463.961L251.182,462.332C242.601,447.485 249.845,429.823 246.99,408.327L238.873,408.221C238.19,427.018 241.633,446.851 233.051,461.698L13.169,463.327C-1.624,385.1 12.002,329.201 27.014,274.391C29.185,252.13 31.357,231.808 33.529,211.684C37.9,175.733 41.587,138.54 62.846,113.144C72.738,96.989 76.806,77.715 76.691,58.581L75.062,-14.713L409.399,-16.102" style="fill:rgb(249,242,242);stroke:rgb(119,119,119);stroke-width:4.5px;"/>
    <path id="path1361" d="M241.68,171.151C222.425,171.01 204.31,177.104 189.501,193.911C179.672,201.443 170.324,213.798 159.842,214.798C157.603,210.631 158.336,203.493 151.069,204.355C146.192,198.525 140.768,195.981 134.777,196.835C127.562,186.266 118.279,186.034 108.878,186.392C89.444,186.883 89.949,197.929 88.826,208.114C89.131,220.481 94.311,227.973 100.105,234.85C101.612,237.42 103.342,240.045 100.523,241.533C96.001,247.771 94.136,252.077 101.776,249.47C104.89,258.642 105.337,250.478 106.371,246.129C111.23,253.391 112.486,249.072 112.22,239.862C117.212,241.525 121.178,242.237 116.397,234.85C120.382,230.522 122.433,226.444 115.144,223.571L125.169,219.393C120.975,217.914 116.719,216.616 111.802,217.305C106.993,217.194 98.06,200.391 114.308,199.76C119.609,199.536 123.38,201.608 127.258,203.519C130.283,207.427 133.474,209.501 136.866,209.368C140.179,208.767 143.63,210.363 147.31,215.634L153.158,221.064C157.556,230.058 166.141,221.84 173.627,218.14C182.115,212.012 187.088,211.953 191.59,212.709C182.028,227.09 164.447,229.179 159.842,229.419L159.842,237.356C170.282,236.907 181.254,230.342 192.425,221.482C197.851,235.826 200.903,251.226 212.477,262.838C215.308,266.616 215.821,270.858 214.983,275.37C212.754,285.395 208.696,294.323 208.299,305.447C209.854,317.441 216.106,333.018 218.325,346.803C221.249,362.817 222.163,378.83 222.92,394.843C235.422,383.539 249.153,384.524 262.586,395.369C262.071,379.463 262.985,363.45 265.909,347.437C268.128,333.651 274.38,318.075 275.934,306.081C275.538,294.956 271.48,286.028 269.251,276.004C268.413,271.492 268.926,267.25 271.757,263.471C283.331,251.859 286.383,236.46 291.808,222.115C302.98,230.975 313.952,237.54 324.392,237.989L324.392,230.052C319.787,229.812 302.206,227.723 292.644,213.343C297.145,212.586 302.119,212.645 310.607,218.773C318.092,222.473 326.678,230.691 331.076,221.698L336.924,216.267C340.604,210.996 344.055,209.401 347.368,210.001C350.76,210.134 353.951,208.061 356.976,204.153C360.853,202.241 364.624,200.169 369.925,200.393C386.173,201.024 377.24,217.828 372.432,217.938C367.514,217.249 363.259,218.547 359.064,220.027L369.09,224.204C361.801,227.077 363.852,231.155 367.837,235.483C363.055,242.87 367.022,242.158 372.014,240.496C371.748,249.706 373.004,254.024 377.863,246.762C378.897,251.111 379.344,259.275 382.458,250.104C390.097,252.71 388.233,248.405 383.711,242.167C380.892,240.678 382.621,238.053 384.129,235.483C389.923,228.606 395.103,221.114 395.408,208.748C394.285,198.563 394.79,187.516 375.356,187.025C365.955,186.668 356.672,186.899 349.456,197.469C343.466,196.614 338.041,199.159 333.165,204.988C325.898,204.127 326.631,211.265 324.392,215.432C313.909,214.431 304.562,202.077 294.733,194.545C279.924,177.737 261.999,171.454 241.68,171.151Z" style="fill:rgb(241,231,231);stroke:rgb(92,92,92);stroke-width:2.04px;"/>
    <g transform="matrix(1.54268,0,0,1.54268,-138.03,-162.504)">
        <path d="M254.351,299.449L311.43,299.449" style="fill:none;stroke:rgb(159,41,41);stroke-width:1.3px;stroke-linejoin:round;stroke-miterlimit:1.5;"/>
    </g>
    <path id="path1369" d="M198.294,204.005C180.998,200.73 199.461,201.671 199.461,201.671L281.052,202.699L285.939,204.638C268.643,207.913 260.262,216.537 258.517,229.143C255.016,239.84 246.07,251.703 245.681,259.483L245.098,273.486C244.905,277.279 243.569,280.501 246.264,285.738C248.192,294.578 246.75,301.734 245.681,309.076C244.612,316.418 239.622,315.785 238.553,308.443C237.484,301.101 236.042,293.945 237.969,285.105C240.665,279.867 239.329,276.646 239.136,272.852L238.553,258.849C238.164,251.07 229.217,239.206 225.717,228.51C223.971,215.904 215.591,207.28 198.294,204.005Z" style="fill:rgb(243,215,215);stroke:rgb(183,183,183);stroke-width:1.63px;"/>
    <path id="path1363" d="M109.336,193.657C114.379,193.473 120.394,192.781 128.053,197.668C131.173,200.635 134.292,201.392 137.412,201.233C141.853,201.114 144.224,205.137 146.77,208.809C151.772,210.55 155.304,214.645 158.357,219.504C160.959,222.802 173.541,213.641 183.313,205.689C185.629,203.494 192.581,202.412 204.703,202.57" style="fill:none;stroke:rgb(92,92,92);stroke-width:4.09px;"/>
    <path id="path1365" d="M166.172,236.267C161.507,242.649 157.508,249.871 144.108,245.239C138.322,244.946 132.299,245.603 127.634,240.826C123.123,237.121 121.995,235.94 117.485,234.943C115.613,229.71 116.045,226.121 118.367,223.176C121.714,218.746 124.353,217.7 127.928,215.674C131.311,216.421 134.694,215.065 138.077,219.351C144.004,218.488 148.82,220.953 152.786,225.97C157.613,226.684 161.684,228.154 163.377,232.001C165.115,233.02 166.002,234.464 166.172,236.267Z" style="fill:rgb(225,225,225);stroke:rgb(92,92,92);stroke-width:2.04px;"/>
    <path id="path1373" d="M179.277,367.213C192.843,368.358 203.09,376.14 211.725,387.146C219.028,398.031 226.718,408.482 243.709,408.468C253.598,408.735 262.56,401.534 272.448,389.463C279.569,378.511 293.079,369.644 305.36,367.213" style="fill:none;stroke:rgb(119,119,119);stroke-width:4.5px;"/>
    <path id="path1371" d="M241.597,306.159C237.232,304.905 235.869,310.234 230.384,309.61C226.116,308.796 221.784,308.205 218.715,303.192C216.347,303.123 214.233,304.025 215.207,307.396C218.777,309.319 221.148,315.631 222.448,321.399C224.161,332.833 225.519,344.268 224.79,355.703C227.493,364.583 229.363,372.88 228.978,381.143C226.421,384.727 224.918,389.836 226.054,390.959C235.747,384.276 247.293,383.87 257.961,390.947C258.988,389.442 257.813,385.36 255.256,381.776C254.871,373.513 256.741,365.216 259.444,356.336C258.715,344.901 260.073,333.467 261.786,322.032C263.086,316.264 265.457,309.952 269.027,308.029C270.001,304.659 267.887,303.756 265.518,303.825C262.45,308.838 258.118,309.43 253.849,310.243C248.364,310.867 247.002,305.539 241.597,306.159Z" style="fill:rgb(233,186,186);"/>
    <path id="path1397" d="M374.897,194.291C369.855,194.107 363.84,193.414 356.18,198.301C353.061,201.268 349.941,202.025 346.822,201.866C342.38,201.747 340.01,205.77 337.464,209.442C332.461,211.183 328.93,215.278 325.877,220.138C323.275,223.435 310.692,214.274 300.921,206.323C298.604,204.128 291.653,203.045 279.53,203.203" style="fill:none;stroke:rgb(92,92,92);stroke-width:4.09px;"/>
    <path id="path1399" d="M318.062,236.9C322.727,243.283 326.726,250.504 340.126,245.873C345.911,245.579 351.935,246.236 356.6,241.46C361.111,237.754 362.238,236.574 366.749,235.576C368.621,230.343 368.189,226.754 365.866,223.809C362.519,219.379 359.881,218.333 356.306,216.307C352.923,217.054 349.539,215.699 346.156,219.985C340.23,219.121 335.413,221.586 331.447,226.604C326.621,227.317 322.55,228.787 320.857,232.634C319.118,233.653 318.232,235.097 318.062,236.9Z" style="fill:rgb(225,225,225);stroke:rgb(92,92,92);stroke-width:2.04px;"/>
    <g id="text1412">
        <g transform="matrix(1,0,0,1,307.768,165.4)">
            <switch style="font-family:'LucidaGrande', 'Lucida Grande', sans-serif;font-weight:500;font-size:20px;"><text x="0px" y="0px" style="font-family:'LucidaGrande', 'Lucida Grande', sans-serif;font-weight:500;font-size:20px;" id="trsvg11-fa" systemLanguage="fa"><tspan id="trsvg1-fa">لوله فالوپ</tspan></text><text x="0px" y="0px" style="font-family:'LucidaGrande', 'Lucida Grande', sans-serif;font-weight:500;font-size:20px;" id="trsvg11"><tspan id="trsvg1">Uterine tube</tspan></text></switch>
        </g>
        <g transform="matrix(1,0,0,1,66.7469,165.4)">
            <switch style="font-family:'LucidaGrande', 'Lucida Grande', sans-serif;font-weight:500;font-size:20px;"><text x="0px" y="0px" style="font-family:'LucidaGrande', 'Lucida Grande', sans-serif;font-weight:500;font-size:20px;" id="trsvg12-fa" systemLanguage="fa"><tspan id="trsvg2-fa">انفاندیبولوم</tspan></text><text x="0px" y="0px" style="font-family:'LucidaGrande', 'Lucida Grande', sans-serif;font-weight:500;font-size:20px;" id="trsvg12"><tspan id="trsvg2">Infundibulum</tspan></text></switch>
        </g>
    </g>
    <g transform="matrix(1,0,0,1,411.909,243.486)">
        <g id="text1416">
            <switch style="font-family:'LucidaGrande', 'Lucida Grande', sans-serif;font-weight:500;font-size:20px;"><text x="0px" y="0px" style="font-family:'LucidaGrande', 'Lucida Grande', sans-serif;font-weight:500;font-size:20px;" id="trsvg13-fa" systemLanguage="fa"><tspan id="trsvg3-fa">تخمدان</tspan></text><text x="0px" y="0px" style="font-family:'LucidaGrande', 'Lucida Grande', sans-serif;font-weight:500;font-size:20px;" id="trsvg13"><tspan id="trsvg3">Ovary</tspan></text></switch>
        </g>
    </g>
    <g transform="matrix(1,0,0,1,206.781,157.626)">
        <g id="text1420">
            <switch style="font-family:'LucidaGrande', 'Lucida Grande', sans-serif;font-weight:500;font-size:20px;"><text x="0px" y="0px" style="font-family:'LucidaGrande', 'Lucida Grande', sans-serif;font-weight:500;font-size:20px;" id="trsvg14-fa" systemLanguage="fa"><tspan id="trsvg4-fa">فوندوس</tspan></text><text x="0px" y="0px" style="font-family:'LucidaGrande', 'Lucida Grande', sans-serif;font-weight:500;font-size:20px;" id="trsvg14"><tspan id="trsvg4">Fundus</tspan></text></switch>
        </g>
    </g>
    <g id="text1424">
    </g>
    <g id="text1428">
        <g transform="matrix(1,0,0,1,346.861,359.24)">
            <switch style="font-family:'LucidaGrande', 'Lucida Grande', sans-serif;font-weight:500;font-size:20px;"><text x="0px" y="0px" style="font-family:'LucidaGrande', 'Lucida Grande', sans-serif;font-weight:500;font-size:20px;" id="trsvg15-fa" systemLanguage="fa"><tspan id="trsvg5-fa">واژن</tspan></text><text x="0px" y="0px" style="font-family:'LucidaGrande', 'Lucida Grande', sans-serif;font-weight:500;font-size:20px;" id="trsvg15"><tspan id="trsvg5">Vagina</tspan></text></switch>
        </g>
        <g transform="matrix(1,0,0,1,62.4771,304.63)">
            <switch style="font-family:'LucidaGrande', 'Lucida Grande', sans-serif;font-weight:500;font-size:20px;"><text x="0px" y="0px" style="font-family:'LucidaGrande', 'Lucida Grande', sans-serif;font-weight:500;font-size:20px;" id="trsvg16-fa" systemLanguage="fa"><tspan id="trsvg6-fa">فیمبریا</tspan></text><text x="0px" y="0px" style="font-family:'LucidaGrande', 'Lucida Grande', sans-serif;font-weight:500;font-size:20px;" id="trsvg16"><tspan id="trsvg6">Fimbriae</tspan></text></switch>
        </g>
        <path d="M107.033,287.215L107.033,238.008" style="fill:none;stroke:rgb(159,41,41);stroke-width:2px;stroke-linejoin:round;stroke-miterlimit:1.5;"/>
        <g transform="matrix(1,0,0,1,346.861,310.069)">
            <switch style="font-family:'LucidaGrande', 'Lucida Grande', sans-serif;font-weight:500;font-size:20px;"><text x="0px" y="0px" style="font-family:'LucidaGrande', 'Lucida Grande', sans-serif;font-weight:500;font-size:20px;" id="trsvg17-fa" systemLanguage="fa"><tspan id="trsvg7-fa">دهانه رحم</tspan></text><text x="0px" y="0px" style="font-family:'LucidaGrande', 'Lucida Grande', sans-serif;font-weight:500;font-size:20px;" id="trsvg17"><tspan id="trsvg7">Cervix</tspan></text></switch>
        </g>
        <g transform="matrix(1,0,0,1,346.861,288.053)">
            <switch style="font-family:'LucidaGrande', 'Lucida Grande', sans-serif;font-weight:500;font-size:20px;"><text x="0px" y="0px" style="font-family:'LucidaGrande', 'Lucida Grande', sans-serif;font-weight:500;font-size:20px;" id="trsvg18-fa" systemLanguage="fa"><tspan id="trsvg8-fa">اِندومتر</tspan></text><text x="0px" y="0px" style="font-family:'LucidaGrande', 'Lucida Grande', sans-serif;font-weight:500;font-size:20px;" id="trsvg18"><tspan id="trsvg8">Endometrium</tspan></text></switch>
        </g>
        <path d="M246.035,307.125C246.035,307.125 249.18,302.515 249.467,300.471C249.753,298.426 249.702,285.023 249.291,283.259C248.88,281.495 248.959,278.708 248.959,275.028C248.959,271.349 248.384,267.054 249.022,263.107C249.66,259.16 249.26,257.196 251.112,253.091C252.964,248.987 256.273,242.068 257.166,240.599C258.059,239.131 261.313,234.613 261.599,231.826C261.885,229.039 262.249,227.249 263.051,223.25C263.853,219.251 266.722,213.095 266.722,213.095" style="fill:none;stroke:rgb(183,183,183);stroke-width:2px;stroke-linejoin:round;stroke-miterlimit:1.5;"/>
        <g transform="matrix(-1.0102,0,0,1.00582,486.5,-2.27003)">
            <path d="M246.035,307.125C246.035,307.125 249.18,302.515 249.467,300.471C249.753,298.426 249.702,285.023 249.291,283.259C248.88,281.495 248.959,278.708 248.959,275.028C248.959,271.349 248.384,267.054 249.022,263.107C249.66,259.16 249.26,257.196 251.112,253.091C252.964,248.987 256.273,242.068 257.166,240.599C258.059,239.131 261.313,234.613 261.599,231.826C261.885,229.039 262.249,227.249 263.051,223.25C263.853,219.251 266.722,213.095 266.722,213.095" style="fill:none;stroke:rgb(183,183,183);stroke-width:1.98px;stroke-linejoin:round;stroke-miterlimit:1.5;"/>
        </g>
        <g transform="matrix(0.647608,0,0,0.647608,84.3887,104.831)">
            <circle cx="243.555" cy="300.518" r="18.891" style="fill:none;stroke:rgb(159,41,41);stroke-width:3.09px;stroke-linecap:round;stroke-linejoin:round;stroke-miterlimit:1.5;"/>
        </g>
    </g>
    <path d="M242.117,160L242.117,181.491" style="fill:none;stroke:rgb(159,41,41);stroke-width:2px;stroke-linejoin:round;stroke-miterlimit:1.5;"/>
    <path id="path1446" d="M286.499,314.406L311.43,314.406L311.43,388.823L286.499,388.823" style="fill:none;stroke:rgb(159,41,41);stroke-width:2.04px;"/>
    <path id="path1448" d="M311.43,351.27L342.406,351.27" style="fill:none;stroke:rgb(159,41,41);stroke-width:2.04px;"/>
    <g transform="matrix(1.66948,0,0,1.54268,-177.521,-183.499)">
        <path d="M254.351,299.449L311.43,299.449" style="fill:none;stroke:rgb(159,41,41);stroke-width:1.24px;stroke-linejoin:round;stroke-miterlimit:1.5;"/>
    </g>
    <g transform="matrix(1,0,0,1,346.861,268.088)">
        <switch style="font-family:'LucidaGrande', 'Lucida Grande', sans-serif;font-weight:500;font-size:20px;"><text x="0px" y="0px" style="font-family:'LucidaGrande', 'Lucida Grande', sans-serif;font-weight:500;font-size:20px;" id="trsvg19-fa" systemLanguage="fa"><tspan id="trsvg9-fa">میومتر</tspan></text><text x="0px" y="0px" style="font-family:'LucidaGrande', 'Lucida Grande', sans-serif;font-weight:500;font-size:20px;" id="trsvg19"><tspan id="trsvg9">Myometrium</tspan></text></switch>
    </g>
    <g transform="matrix(1.41694,0,0,1.30931,-98.8712,-131.963)">
        <path d="M254.351,299.449L311.43,299.449" style="fill:none;stroke:rgb(159,41,41);stroke-width:1.47px;stroke-linejoin:round;stroke-miterlimit:1.5;"/>
    </g>
    <g transform="matrix(1,0,0,1,210.575,227.549)">
        <switch style="font-family:'LucidaGrande', 'Lucida Grande', sans-serif;font-weight:500;font-size:20px;"><text x="0px" y="0px" style="font-family:'LucidaGrande', 'Lucida Grande', sans-serif;font-weight:500;font-size:20px;" id="trsvg20-fa" systemLanguage="fa"><tspan id="trsvg10-fa">رحم</tspan></text><text x="0px" y="0px" style="font-family:'LucidaGrande', 'Lucida Grande', sans-serif;font-weight:500;font-size:20px;" id="trsvg20"><tspan id="trsvg10">Uterus</tspan></text></switch>
    </g>
    <g transform="matrix(0.992501,0,0,0.992501,20.2648,1.77501)">
        <path d="M333.289,236.693L390.707,236.693" style="fill:none;stroke:rgb(159,41,41);stroke-width:2.02px;stroke-linejoin:round;stroke-miterlimit:1.5;"/>
    </g>
    <g transform="matrix(0.776932,0,0,0.776932,74.8425,38.1778)">
        <path d="M335.514,171.149L335.514,220.363" style="fill:none;stroke:rgb(159,41,41);stroke-width:2.57px;stroke-linejoin:round;stroke-miterlimit:1.5;"/>
    </g>
    <g transform="matrix(0.776932,0,0,0.571717,-179.411,73.3001)">
        <path d="M345.251,166.229L353.615,204.042" style="fill:none;stroke:rgb(159,41,41);stroke-width:2.93px;stroke-linejoin:round;stroke-miterlimit:1.5;"/>
    </g>
</svg>
