{
  "accessors": [
    {
      "bufferView": 2,
      "componentType": 5126,
      "count": 24153,
      "max": [
        1.9702907800674438,
        2.4371228218078613,
        2.1366612911224365
      ],
      "min": [
        -1.7650270462036133,
        -1.0000001192092896,
        -2.176872968673706
      ],
      "type": "VEC3"
    },
    {
      "bufferView": 2,
      "byteOffset": 289836,
      "componentType": 5126,
      "count": 24153,
      "max": [
        1.0,
        1.0,
        0.9999901056289673
      ],
      "min": [
        -0.9999946355819702,
        -1.0,
        -1.0
      ],
      "type": "VEC3"
    },
    {
      "bufferView": 1,
      "componentType": 5126,
      "count": 24153,
      "max": [
        0.8750001788139343,
        1.000000238418579
      ],
      "min": [
        0.0,
        0.0
      ],
      "type": "VEC2"
    },
    {
      "bufferView": 0,
      "componentType": 5125,
      "count": 130944,
      "type": "SCALAR"
    },
    {
      "bufferView": 2,
      "byteOffset": 579672,
      "componentType": 5126,
      "count": 3862,
      "max": [
        1.8355927467346191,
        1.3551745414733887,
        0.8873422145843506
      ],
      "min": [
        -1.4924592971801758,
        -0.7608460187911987,
        -1.9549052715301514
      ],
      "type": "VEC3"
    },
    {
      "bufferView": 2,
      "byteOffset": 626016,
      "componentType": 5126,
      "count": 3862,
      "max": [
        0.9958897233009338,
        0.6492676138877869,
        0.9958606362342834
      ],
      "min": [
        -0.9958246946334839,
        -1.0,
        -0.9989189505577087
      ],
      "type": "VEC3"
    },
    {
      "bufferView": 1,
      "byteOffset": 193224,
      "componentType": 5126,
      "count": 3862,
      "max": [
        0.5781250596046448,
        1.000000238418579
      ],
      "min": [
        0.125,
        0.0
      ],
      "type": "VEC2"
    },
    {
      "bufferView": 0,
      "byteOffset": 523776,
      "componentType": 5125,
      "count": 20256,
      "type": "SCALAR"
    },
    {
      "bufferView": 2,
      "byteOffset": 672360,
      "componentType": 5126,
      "count": 4947,
      "max": [
        0.3675517141819,
        0.36972641944885254,
        0.5940585136413574
      ],
      "min": [
        -0.8987531661987305,
        -0.08000009506940842,
        -0.5613425374031067
      ],
      "type": "VEC3"
    },
    {
      "bufferView": 2,
      "byteOffset": 731724,
      "componentType": 5126,
      "count": 4947,
      "max": [
        0.9999998807907104,
        0.9999982118606567,
        1.0
      ],
      "min": [
        -0.9998701810836792,
        -0.9999982118606567,
        -1.0
      ],
      "type": "VEC3"
    },
    {
      "bufferView": 1,
      "byteOffset": 224120,
      "componentType": 5126,
      "count": 4947,
      "max": [
        1.0,
        1.0000001192092896
      ],
      "min": [
        0.0,
        0.0
      ],
      "type": "VEC2"
    },
    {
      "bufferView": 0,
      "byteOffset": 604800,
      "componentType": 5125,
      "count": 26784,
      "type": "SCALAR"
    },
    {
      "bufferView": 2,
      "byteOffset": 791088,
      "componentType": 5126,
      "count": 4888,
      "max": [
        -0.4074917733669281,
        0.3761647641658783,
        0.27066150307655334
      ],
      "min": [
        -1.3108081817626953,
        -0.009373010136187077,
        -0.40774598717689514
      ],
      "type": "VEC3"
    },
    {
      "bufferView": 2,
      "byteOffset": 849744,
      "componentType": 5126,
      "count": 4888,
      "max": [
        1.0,
        1.0,
        1.0
      ],
      "min": [
        -1.0,
        -1.0,
        -1.0
      ],
      "type": "VEC3"
    },
    {
      "bufferView": 1,
      "byteOffset": 263696,
      "componentType": 5126,
      "count": 4888,
      "max": [
        1.000000238418579,
        1.000000238418579
      ],
      "min": [
        -5.960465898624534e-08,
        0.0
      ],
      "type": "VEC2"
    },
    {
      "bufferView": 0,
      "byteOffset": 711936,
      "componentType": 5125,
      "count": 25776,
      "type": "SCALAR"
    },
    {
      "bufferView": 2,
      "byteOffset": 908400,
      "componentType": 5126,
      "count": 1092,
      "max": [
        0.7869919538497925,
        0.06808121502399445,
        0.44080859422683716
      ],
      "min": [
        -0.27098047733306885,
        -0.052826713770627975,
        0.05298161879181862
      ],
      "type": "VEC3"
    },
    {
      "bufferView": 2,
      "byteOffset": 921504,
      "componentType": 5126,
      "count": 1092,
      "max": [
        0.9955694675445557,
        1.0,
        0.9999798536300659
      ],
      "min": [
        -0.9597102999687195,
        -1.0,
        -0.9999048709869385
      ],
      "type": "VEC3"
    },
    {
      "bufferView": 1,
      "byteOffset": 302800,
      "componentType": 5126,
      "count": 1092,
      "max": [
        1.0,
        1.0
      ],
      "min": [
        0.0,
        0.0
      ],
      "type": "VEC2"
    },
    {
      "bufferView": 0,
      "byteOffset": 815040,
      "componentType": 5125,
      "count": 5976,
      "type": "SCALAR"
    },
    {
      "bufferView": 2,
      "byteOffset": 934608,
      "componentType": 5126,
      "count": 1037,
      "max": [
        1.5610171556472778,
        1.0000001192092896,
        1.0
      ],
      "min": [
        -0.641663134098053,
        -1.0000001192092896,
        -0.29575595259666443
      ],
      "type": "VEC3"
    },
    {
      "bufferView": 2,
      "byteOffset": 947052,
      "componentType": 5126,
      "count": 1037,
      "max": [
        0.999900221824646,
        1.0,
        1.0
      ],
      "min": [
        -0.9998936653137207,
        -1.0,
        -0.9999959468841553
      ],
      "type": "VEC3"
    },
    {
      "bufferView": 1,
      "byteOffset": 311536,
      "componentType": 5126,
      "count": 1037,
      "max": [
        0.8750001192092896,
        1.0000001192092896
      ],
      "min": [
        0.125,
        0.0
      ],
      "type": "VEC2"
    },
    {
      "bufferView": 0,
      "byteOffset": 838944,
      "componentType": 5125,
      "count": 5376,
      "type": "SCALAR"
    },
    {
      "bufferView": 2,
      "byteOffset": 959496,
      "componentType": 5126,
      "count": 2531,
      "max": [
        4.179737567901611,
        4.195525169372559,
        0.9999998807907104
      ],
      "min": [
        -1.2587474584579468,
        -1.20756196975708,
        -0.3921453058719635
      ],
      "type": "VEC3"
    },
    {
      "bufferView": 2,
      "byteOffset": 989868,
      "componentType": 5126,
      "count": 2531,
      "max": [
        0.999914288520813,
        0.9999998807907104,
        1.0
      ],
      "min": [
        -0.998035192489624,
        -0.9999998807907104,
        -0.9999982118606567
      ],
      "type": "VEC3"
    },
    {
      "bufferView": 1,
      "byteOffset": 319832,
      "componentType": 5126,
      "count": 2531,
      "max": [
        0.8750001192092896,
        1.0000001192092896
      ],
      "min": [
        0.125,
        0.0
      ],
      "type": "VEC2"
    },
    {
      "bufferView": 0,
      "byteOffset": 860448,
      "componentType": 5125,
      "count": 12864,
      "type": "SCALAR"
    },
    {
      "bufferView": 2,
      "byteOffset": 1020240,
      "componentType": 5126,
      "count": 1346,
      "max": [
        5.359488487243652,
        1.5673739910125732,
        4.19335412979126
      ],
      "min": [
        -2.378739833831787,
        -1.000000238418579,
        -0.41075941920280457
      ],
      "type": "VEC3"
    },
    {
      "bufferView": 2,
      "byteOffset": 1036392,
      "componentType": 5126,
      "count": 1346,
      "max": [
        0.9797748923301697,
        1.0,
        0.9999971389770508
      ],
      "min": [
        -0.9987377524375916,
        -0.9999996423721313,
        -0.9999929666519165
      ],
      "type": "VEC3"
    },
    {
      "bufferView": 1,
      "byteOffset": 340080,
      "componentType": 5126,
      "count": 1346,
      "max": [
        0.8750001192092896,
        1.0000001192092896
      ],
      "min": [
        0.125,
        0.0
      ],
      "type": "VEC2"
    },
    {
      "bufferView": 0,
      "byteOffset": 911904,
      "componentType": 5125,
      "count": 6912,
      "type": "SCALAR"
    },
    {
      "bufferView": 2,
      "byteOffset": 1052544,
      "componentType": 5126,
      "count": 2193,
      "max": [
        8.964339256286621,
        3.1160216331481934,
        1.9458370208740234
      ],
      "min": [
        -4.469289779663086,
        -1.0000001192092896,
        -0.8028841018676758
      ],
      "type": "VEC3"
    },
    {
      "bufferView": 2,
      "byteOffset": 1078860,
      "componentType": 5126,
      "count": 2193,
      "max": [
        0.9999921321868896,
        0.999996542930603,
        0.9999979734420776
      ],
      "min": [
        -0.997791051864624,
        -0.999997615814209,
        -0.9999998807907104
      ],
      "type": "VEC3"
    },
    {
      "bufferView": 1,
      "byteOffset": 350848,
      "componentType": 5126,
      "count": 2193,
      "max": [
        0.8750001788139343,
        1.0000001192092896
      ],
      "min": [
        0.125,
        0.0
      ],
      "type": "VEC2"
    },
    {
      "bufferView": 0,
      "byteOffset": 939552,
      "componentType": 5125,
      "count": 11136,
      "type": "SCALAR"
    }
  ],
  "asset": {
    "extras": {
      "author": "supiadawiah (https://sketchfab.com/supiadawiah)",
      "license": "CC-BY-4.0 (http://creativecommons.org/licenses/by/4.0/)",
      "source": "https://sketchfab.com/3d-models/ear-anatomy-a73b47d7e2ae494681184c3a5701b549",
      "title": "Ear Anatomy"
    },
    "generator": "Sketchfab-13.93.0",
    "version": "2.0"
  },
  "bufferViews": [
    {
      "buffer": 0,
      "byteLength": 984096,
      "name": "floatBufferViews",
      "target": 34963
    },
    {
      "buffer": 0,
      "byteLength": 368392,
      "byteOffset": 984096,
      "byteStride": 8,
      "name": "floatBufferViews",
      "target": 34962
    },
    {
      "buffer": 0,
      "byteLength": 1105176,
      "byteOffset": 1352488,
      "byteStride": 12,
      "name": "floatBufferViews",
      "target": 34962
    }
  ],
  "buffers": [
    {
      "byteLength": 2457664,
      "uri": "scene.bin"
    }
  ],
  "materials": [
    {
      "doubleSided": true,
      "name": "w.kulit",
      "pbrMetallicRoughness": {
        "baseColorFactor": [
          0.8,
          0.453552,
          0.238798,
          1.0
        ],
        "metallicFactor": 0.0,
        "roughnessFactor": 0.8746592164737321
      }
    },
    {
      "doubleSided": true,
      "name": "telinga",
      "pbrMetallicRoughness": {
        "baseColorFactor": [
          0.609449,
          0.21177,
          0.0558963,
          1.0
        ],
        "metallicFactor": 0.0,
        "roughnessFactor": 0.9362580929720355
      }
    },
    {
      "doubleSided": true,
      "name": "material",
      "pbrMetallicRoughness": {
        "baseColorFactor": [
          0.799103,
          0.14996,
          0.162029,
          1.0
        ],
        "metallicFactor": 0.0,
        "roughnessFactor": 0.9354135950904857
      }
    },
    {
      "doubleSided": true,
      "name": "material_3",
      "pbrMetallicRoughness": {
        "baseColorFactor": [
          0.250158,
          0.799103,
          0.168269,
          1.0
        ],
        "metallicFactor": 0.0,
        "roughnessFactor": 0.8575957697600766
      }
    },
    {
      "doubleSided": true,
      "name": "material_4",
      "pbrMetallicRoughness": {
        "baseColorFactor": [
          0.188705,
          0.592574,
          0.375378,
          1.0
        ],
        "metallicFactor": 0.0,
        "roughnessFactor": 0.8902023765956717
      }
    },
    {
      "doubleSided": true,
      "name": "material_5",
      "pbrMetallicRoughness": {
        "baseColorFactor": [
          0.8,
          0.324622,
          0.110211,
          1.0
        ],
        "metallicFactor": 0.0,
        "roughnessFactor": 0.9082749512251717
      }
    }
  ],
  "meshes": [
    {
      "name": "Cube_w.kulit_0",
      "primitives": [
        {
          "attributes": {
            "NORMAL": 1,
            "POSITION": 0,
            "TEXCOORD_0": 2
          },
          "indices": 3,
          "material": 0,
          "mode": 4
        }
      ]
    },
    {
      "name": "Cube_telinga_0",
      "primitives": [
        {
          "attributes": {
            "NORMAL": 5,
            "POSITION": 4,
            "TEXCOORD_0": 6
          },
          "indices": 7,
          "material": 1,
          "mode": 4
        }
      ]
    },
    {
      "name": "NurbsPath_w.3_0",
      "primitives": [
        {
          "attributes": {
            "NORMAL": 9,
            "POSITION": 8,
            "TEXCOORD_0": 10
          },
          "indices": 11,
          "material": 2,
          "mode": 4
        }
      ]
    },
    {
      "name": "NurbsPath_w4_0",
      "primitives": [
        {
          "attributes": {
            "NORMAL": 13,
            "POSITION": 12,
            "TEXCOORD_0": 14
          },
          "indices": 15,
          "material": 3,
          "mode": 4
        }
      ]
    },
    {
      "name": "NurbsPath_w5_0",
      "primitives": [
        {
          "attributes": {
            "NORMAL": 17,
            "POSITION": 16,
            "TEXCOORD_0": 18
          },
          "indices": 19,
          "material": 4,
          "mode": 4
        }
      ]
    },
    {
      "name": "Cube.008_w.3_0",
      "primitives": [
        {
          "attributes": {
            "NORMAL": 21,
            "POSITION": 20,
            "TEXCOORD_0": 22
          },
          "indices": 23,
          "material": 2,
          "mode": 4
        }
      ]
    },
    {
      "name": "Cube.009_w2_0",
      "primitives": [
        {
          "attributes": {
            "NORMAL": 25,
            "POSITION": 24,
            "TEXCOORD_0": 26
          },
          "indices": 27,
          "material": 5,
          "mode": 4
        }
      ]
    },
    {
      "name": "Cube.010_w.3_0",
      "primitives": [
        {
          "attributes": {
            "NORMAL": 29,
            "POSITION": 28,
            "TEXCOORD_0": 30
          },
          "indices": 31,
          "material": 2,
          "mode": 4
        }
      ]
    },
    {
      "name": "Cube.011_w2_0",
      "primitives": [
        {
          "attributes": {
            "NORMAL": 33,
            "POSITION": 32,
            "TEXCOORD_0": 34
          },
          "indices": 35,
          "material": 5,
          "mode": 4
        }
      ]
    }
  ],
  "nodes": [
    {
      "children": [
        1
      ],
      "matrix": [
        1.0,
        0.0,
        0.0,
        0.0,
        0.0,
        2.220446049250313e-16,
        -1.0,
        0.0,
        0.0,
        1.0,
        2.220446049250313e-16,
        0.0,
        0.0,
        0.0,
        0.0,
        1.0
      ],
      "name": "Sketchfab_model"
    },
    {
      "children": [
        2
      ],
      "matrix": [
        0.009999999776482582,
        0.0,
        0.0,
        0.0,
        0.0,
        0.0,
        0.009999999776482582,
        0.0,
        0.0,
        -0.009999999776482582,
        0.0,
        0.0,
        0.0,
        0.0,
        0.0,
        1.0
      ],
      "name": "Ear JAD.fbx_model.fbx"
    },
    {
      "children": [
        3,
        6,
        10,
        12,
        14,
        16
      ],
      "name": "RootNode"
    },
    {
      "children": [
        4,
        5
      ],
      "matrix": [
        100.0,
        0.0,
        0.0,
        0.0,
        0.0,
        -2.81199666925198e-06,
        -17.2599124908445,
        0.0,
        0.0,
        63.467727661131974,
        -1.0340205310007489e-05,
        0.0,
        0.0,
        80.17753601074219,
        124.10682678222656,
        1.0
      ],
      "name": "Cube"
    },
    {
      "mesh": 0,
      "name": "Cube_w.kulit_0"
    },
    {
      "mesh": 1,
      "name": "Cube_telinga_0"
    },
    {
      "children": [
        7,
        8,
        9
      ],
      "matrix": [
        77.4786605834961,
        0.0,
        0.0,
        0.0,
        0.0,
        -1.2622876020632293e-05,
        -77.47866058349507,
        0.0,
        0.0,
        77.47866058349507,
        -1.2622876020632293e-05,
        0.0,
        123.65206146240234,
        82.91959381103516,
        146.66539001464844,
        1.0
      ],
      "name": "NurbsPath"
    },
    {
      "mesh": 2,
      "name": "NurbsPath_w.3_0"
    },
    {
      "mesh": 3,
      "name": "NurbsPath_w4_0"
    },
    {
      "mesh": 4,
      "name": "NurbsPath_w5_0"
    },
    {
      "children": [
        11
      ],
      "matrix": [
        18.689180374145508,
        0.0,
        0.0,
        0.0,
        -0.0,
        -4.854999764233356e-07,
        -2.9799776077270113,
        0.0,
        0.0,
        99.99999999999868,
        -1.629206793918314e-05,
        0.0,
        -84.96070861816406,
        113.76921081542969,
        139.61895751953125,
        1.0
      ],
      "name": "Cube.008"
    },
    {
      "mesh": 5,
      "name": "Cube.008_w.3_0"
    },
    {
      "children": [
        13
      ],
      "matrix": [
        18.689180374145508,
        0.0,
        0.0,
        0.0,
        -0.0,
        -4.854999764233356e-07,
        -2.9799776077270113,
        0.0,
        0.0,
        99.99999999999868,
        -1.629206793918314e-05,
        0.0,
        -104.6886215209961,
        113.76921081542969,
        139.61895751953125,
        1.0
      ],
      "name": "Cube.009"
    },
    {
      "mesh": 6,
      "name": "Cube.009_w2_0"
    },
    {
      "children": [
        15
      ],
      "matrix": [
        6.969375133514404,
        0.0,
        0.0,
        0.0,
        -0.0,
        -5.485994686600007e-07,
        -3.367279529571489,
        0.0,
        0.0,
        14.50797653198223,
        -2.3636493931913223e-06,
        0.0,
        -77.47981262207031,
        -14.603524208068848,
        141.09695434570313,
        1.0
      ],
      "name": "Cube.010"
    },
    {
      "mesh": 7,
      "name": "Cube.010_w.3_0"
    },
    {
      "children": [
        17
      ],
      "matrix": [
        4.619927883148193,
        0.0,
        0.0,
        0.0,
        -0.0,
        -5.501445781191262e-07,
        -3.3767633438109907,
        0.0,
        0.0,
        25.414627075194975,
        -4.140568309580854e-06,
        0.0,
        -85.73942565917969,
        0.0,
        140.74484252929688,
        1.0
      ],
      "name": "Cube.011"
    },
    {
      "mesh": 8,
      "name": "Cube.011_w2_0"
    }
  ],
  "scene": 0,
  "scenes": [
    {
      "name": "Sketchfab_Scene",
      "nodes": [
        0
      ]
    }
  ]
}
